<svg xmlns="http://www.w3.org/2000/svg" width="18" height="18" viewBox="0 0 18 18"><g class="nc-icon-wrapper" fill="#626262" stroke="#626262"><path d="M2.665,5.086L8.534,1.995c.292-.154,.64-.154,.932,0l5.87,3.091c.534,.281,.534,1.046,0,1.327l-5.87,3.091c-.292,.154-.64,.154-.932,0L2.665,6.414c-.534-.281-.534-1.046,0-1.327Z" fill="none" stroke="#626262" stroke-linecap="round" stroke-linejoin="round" stroke-width="1.5"></path><path d="M15.736,9c0,.261-.134,.523-.401,.664l-5.87,3.091c-.292,.154-.64,.154-.932,0l-5.87-3.091c-.267-.141-.401-.402-.401-.664" fill="none" stroke-linecap="round" stroke-linejoin="round" stroke-width="1.5" data-color="color-2"></path><path d="M15.736,12.25c0,.261-.134,.523-.401,.664l-5.87,3.091c-.292,.154-.64,.154-.932,0l-5.87-3.091c-.267-.141-.401-.402-.401-.664" fill="none" stroke-linecap="round" stroke-linejoin="round" stroke-width="1.5" data-color="color-2"></path></g></svg>